<svg width="47" height="48" viewBox="0 0 47 48" fill="none" xmlns="http://www.w3.org/2000/svg">
<circle cx="23.5" cy="24" r="23.5" fill="#FCCF48"/>
<path fill-rule="evenodd" clip-rule="evenodd" d="M13.0175 19.0526C12.3816 18.2281 10.7283 16.5789 9.20211 16.5789C7.2944 16.5789 6.53132 19.8772 8.05749 21.5263C8.98904 22.5329 10.763 24.2677 12.1453 25.6195C12.4614 25.9287 12.7571 26.2179 13.0175 26.4737C13.278 26.2179 13.5736 25.9287 13.8898 25.6195C15.2721 24.2677 17.046 22.5329 17.9776 21.5263C19.5037 19.8772 18.7407 16.5789 16.833 16.5789C15.3068 16.5789 13.6534 18.2281 13.0175 19.0526Z" fill="#FE797B"/>
<path d="M13.0175 19.0526L12.3646 19.5562L13.0175 20.4028L13.6705 19.5562L13.0175 19.0526ZM8.05749 21.5263L8.66266 20.9663L8.66266 20.9663L8.05749 21.5263ZM12.1453 25.6195L11.5688 26.2091L11.5688 26.2091L12.1453 25.6195ZM13.0175 26.4737L12.4397 27.0619L13.0175 27.6295L13.5954 27.0619L13.0175 26.4737ZM13.8898 25.6195L14.4663 26.209L14.4663 26.209L13.8898 25.6195ZM17.9776 21.5263L17.3724 20.9663L17.3724 20.9663L17.9776 21.5263ZM9.20211 17.4035C9.69373 17.4035 10.3093 17.684 10.9473 18.165C11.5637 18.6297 12.0848 19.1934 12.3646 19.5562L13.6705 18.5491C13.3143 18.0873 12.6908 17.4142 11.94 16.8482C11.2109 16.2984 10.2367 15.7544 9.20211 15.7544V17.4035ZM8.66266 20.9663C8.12787 20.3884 7.95284 19.4525 8.14543 18.6201C8.34653 17.7509 8.81404 17.4035 9.20211 17.4035V15.7544C7.68247 15.7544 6.81459 17.0561 6.53875 18.2483C6.25442 19.4773 6.46093 21.0151 7.45231 22.0864L8.66266 20.9663ZM12.7218 25.03C11.3318 23.6707 9.57663 21.9539 8.66266 20.9663L7.45231 22.0864C8.40146 23.112 10.1942 24.8648 11.5688 26.2091L12.7218 25.03ZM13.5954 25.8855C13.3342 25.6289 13.0378 25.339 12.7218 25.03L11.5688 26.2091C11.8851 26.5184 12.1801 26.8069 12.4397 27.0619L13.5954 25.8855ZM13.5954 27.0619C13.855 26.8069 14.15 26.5184 14.4663 26.209L13.3133 25.03C12.9973 25.339 12.7009 25.6289 12.4397 25.8855L13.5954 27.0619ZM14.4663 26.209C15.8409 24.8648 17.6336 23.112 18.5828 22.0864L17.3724 20.9663C16.4584 21.9539 14.7032 23.6707 13.3133 25.03L14.4663 26.209ZM18.5828 22.0864C19.5741 21.0151 19.7806 19.4773 19.4963 18.2483C19.2205 17.0561 18.3526 15.7544 16.833 15.7544V17.4035C17.221 17.4035 17.6885 17.7509 17.8896 18.6201C18.0822 19.4525 17.9072 20.3884 17.3724 20.9663L18.5828 22.0864ZM16.833 15.7544C15.7984 15.7544 14.8242 16.2984 14.095 16.8482C13.3442 17.4142 12.7207 18.0873 12.3646 18.5491L13.6705 19.5562C13.9502 19.1934 14.4714 18.6297 15.0878 18.165C15.7258 17.684 16.3413 17.4035 16.833 17.4035V15.7544Z" fill="#1E1E1E"/>
<path fill-rule="evenodd" clip-rule="evenodd" d="M33.9825 19.0526C33.3466 18.2281 31.6932 16.5789 30.1671 16.5789C28.2594 16.5789 27.4963 19.8772 29.0225 21.5263C29.954 22.5329 31.728 24.2677 33.1102 25.6195C33.4264 25.9287 33.7221 26.2179 33.9825 26.4737C34.2429 26.2179 34.5386 25.9287 34.8548 25.6195C36.237 24.2677 38.011 22.5329 38.9425 21.5263C40.4687 19.8772 39.7056 16.5789 37.7979 16.5789C36.2718 16.5789 34.6184 18.2281 33.9825 19.0526Z" fill="#FE797B"/>
<path d="M33.9825 19.0526L33.3296 19.5562L33.9825 20.4028L34.6354 19.5562L33.9825 19.0526ZM29.0225 21.5263L29.6276 20.9663L29.6276 20.9663L29.0225 21.5263ZM33.1102 25.6195L32.5337 26.2091L32.5337 26.2091L33.1102 25.6195ZM33.9825 26.4737L33.4047 27.0619L33.9825 27.6295L34.5603 27.0619L33.9825 26.4737ZM34.8548 25.6195L35.4313 26.209L35.4313 26.209L34.8548 25.6195ZM38.9425 21.5263L38.3374 20.9663L38.3374 20.9663L38.9425 21.5263ZM30.1671 17.4035C30.6587 17.4035 31.2743 17.684 31.9123 18.165C32.5287 18.6297 33.0498 19.1934 33.3296 19.5562L34.6354 18.5491C34.2793 18.0873 33.6558 17.4142 32.905 16.8482C32.1758 16.2984 31.2016 15.7544 30.1671 15.7544V17.4035ZM29.6276 20.9663C29.0928 20.3884 28.9178 19.4525 29.1104 18.6201C29.3115 17.7509 29.779 17.4035 30.1671 17.4035V15.7544C28.6474 15.7544 27.7796 17.0561 27.5037 18.2483C27.2194 19.4773 27.4259 21.0151 28.4173 22.0864L29.6276 20.9663ZM33.6868 25.03C32.2968 23.6707 30.5416 21.9539 29.6276 20.9663L28.4173 22.0864C29.3664 23.112 31.1591 24.8648 32.5337 26.2091L33.6868 25.03ZM34.5603 25.8855C34.2991 25.6289 34.0027 25.339 33.6868 25.03L32.5337 26.2091C32.8501 26.5184 33.145 26.8069 33.4047 27.0619L34.5603 25.8855ZM34.5603 27.0619C34.82 26.8069 35.1149 26.5184 35.4313 26.209L34.2782 25.03C33.9623 25.339 33.6659 25.6289 33.4047 25.8855L34.5603 27.0619ZM35.4313 26.209C36.8059 24.8648 38.5986 23.112 39.5477 22.0864L38.3374 20.9663C37.4234 21.9539 35.6682 23.6707 34.2782 25.03L35.4313 26.209ZM39.5477 22.0864C40.5391 21.0151 40.7456 19.4773 40.4613 18.2483C40.1854 17.0561 39.3176 15.7544 37.7979 15.7544V17.4035C38.186 17.4035 38.6535 17.7509 38.8546 18.6201C39.0472 19.4525 38.8722 20.3884 38.3374 20.9663L39.5477 22.0864ZM37.7979 15.7544C36.7634 15.7544 35.7892 16.2984 35.06 16.8482C34.3092 17.4142 33.6857 18.0873 33.3296 18.5491L34.6354 19.5562C34.9152 19.1934 35.4363 18.6297 36.0527 18.165C36.6907 17.684 37.3063 17.4035 37.7979 17.4035V15.7544Z" fill="#1E1E1E"/>
<path d="M14.8246 28.8246H32.1754V29.5C32.1754 34.2913 28.2913 38.1754 23.5 38.1754C18.7087 38.1754 14.8246 34.2913 14.8246 29.5V28.8246Z" fill="white" stroke="#1E1E1E" stroke-width="1.64912"/>
</svg>
