<?xml version="1.0" encoding="UTF-8"?>
<svg id="Layer_2" xmlns="http://www.w3.org/2000/svg" viewBox="0 0 231.37 38.01">
  <defs>
    <style>
      .cls-1 {
        fill: #fff;
      }
    </style>
  </defs>
  <g id="Layer_1-2" data-name="Layer_1">
    <path class="cls-1" d="M230.71,23.06c-.89-1.53-2.76-1.12-3.77.24-1.87,2.4-3.53,4.12-4.97,5.13-3.32,2.48-10.07,2.1-11.88-2.16,6.36-1.56,10.86-3.64,13.48-6.26,4.57-4.2,5.63-12.72,1.2-17.02-4.16-4.27-12.22-3.22-16.85,0-2.73,1.87-4.87,4.42-6.42,7.63-2.01,3.99-2.72,8.89-2.14,13.42-1.49,1.31-3.12,2.46-4.89,3.43-5.32,3.11-12.87,3.93-15.81-1.2,6.31-1.56,10.78-3.64,13.4-6.26,4.58-4.21,5.64-12.72,1.21-17.02-4.16-4.27-12.23-3.23-16.86,0-2.73,1.87-4.87,4.42-6.42,7.63-.53,1.07-.96,2.17-1.3,3.3h-.01c-2.6.49-4.73.78-6.41.87,1.75-4.57,3.16-9.45.48-13-2.07-2.54-6.15-1.95-8.51-.08-1.39,1.07-2.48,2.46-3.29,4.17-1.62,3.3-1.58,7.78,0,10.84-1.6,2.83-4.01,6.63-7.22,11.39-1.64-11.33.42-19.58-2.17-27.04-1.4-1.54-5.84-1.07-7.14.08-.91.69-1.39,1.92-1.44,3.69v2.81c0,1.91.04,3.93.11,6.06-2.42.55-4.57.88-6.45,1-.43-4.12-1.9-7.57-4.41-10.35-4.4-5.39-13.31-5.39-18.87-1.53-2.72,1.77-4.86,4.25-6.42,7.46-.58,1.17-1.04,2.41-1.41,3.71-1.88.38-3.58.61-5.1.71-.43-4.12-1.9-7.57-4.41-10.35-4.4-5.39-13.31-5.39-18.87-1.53-2.72,1.77-4.86,4.25-6.42,7.46-1.95,3.9-2.78,9.28-2.08,14.01-1.12,1.22-2.08,2.19-2.9,2.93-7.66,5.9-6.53-3.33-4.58-10.51,4.39-14.23.18-22.44-12.6-12.04-3.26,2.99-6.23,7.78-8.91,14.36.16-.96.46-2.4.89-4.33,1.07-6.52,2.8-9.25.32-13.24-2.47-2.31-6.85-1.32-9.96.88-2.08,1.39-4.14,3.53-6.18,6.42-1.98,2.89-3.69,6.42-5.13,10.59.21-2.35.48-4.3.8-5.85.32-1.61.75-3.48,1.28-5.62.77-4.01,2.05-5.35.57-7.31-1.73-.86-5.61-.27-6.91.73-1.07.69-1.84,1.82-2.32,3.37C.29,13.03-1.22,26.73,1.25,34.77c1.04,3.56,5.84,4.13,7.95,1.93.8-.91,1.5-2.62,2.08-5.14.7-2.89,1.61-5.83,2.73-8.83,1.18-2.99,2.38-5.45,3.61-7.38,4.63-6.68,4.23-.44,3.29,5.14-.69,6.4-1.67,10.12.49,15.01,1.27,2.97,5.91,3.17,7.7,1.2.8-.86,1.5-2.57,2.09-5.14.8-3.26,1.84-6.36,3.13-9.31,1.28-2.94,2.57-5.29,3.85-7.06,4.75-6.48,4.17.35,2.81,5.54-1.14,6.66-2.23,10.56.96,14.93,3.53,3.85,11.24,2.43,15.17-.4,1.5-1.02,2.94-2.2,4.32-3.54,1.04,1.55,2.33,2.87,3.88,3.94,5.37,3.6,13.51,3.02,18.46-1.69,2.99-2.73,5-6.34,6.02-10.83,1.69-.07,3.32-.24,4.89-.5.16,2.43.73,4.71,1.7,6.84,1.18,2.56,2.89,4.62,5.14,6.18,5.38,3.6,13.51,3.02,18.46-1.69,2.99-2.73,5-6.34,6.02-10.83,2.67-.11,5.18-.46,7.54-1.04.11,1.68.25,3.42.4,5.21.32,3.69,1.1,6.39,2.33,8.11,2.34,3.38,7.47,3.14,10.51.88,1.55-1.13,3.4-3.21,5.54-6.26,1.87-2.68,3.58-5.27,5.13-7.79,3.16,1.01,6.93,1.19,10.3.73.36,4.32,1.89,7.79,4.57,10.43,5.56,5.74,17.48,5.87,24.64,1.52,1.91-1.07,3.59-2.18,5.04-3.35.43.65.91,1.26,1.43,1.83,4.23,5.11,14.77,5.86,20.62,2.65,2.46-1.29,4.44-3.08,5.94-5.38,1.26-1.86,2-5.55.72-7.62ZM78.63,27.39c-2.38,2.73-6.26,2.93-8.51-.24-2.62-3.4-1.96-12.35.41-15.41,1.44-2.09,3.23-3.13,5.37-3.13h.4c-.53,2.83-.18,5.77,1.05,8.35.91,1.82,2.19,3.29,3.85,4.41-.43,2.62-1.28,4.63-2.57,6.02ZM114.84,27.39c-2.38,2.73-6.26,2.93-8.51-.24-2.62-3.4-1.96-12.35.41-15.41,1.44-2.09,3.23-3.13,5.37-3.13h.4c-.53,2.83-.18,5.77,1.05,8.35.91,1.82,2.19,3.29,3.85,4.41-.43,2.62-1.28,4.63-2.57,6.02ZM177.38,19.85c0-3.27.66-6.05,2-8.35,1.71-2.95,4.95-4.7,7.31-2.49,1.92,2.33.55,5.71-1.85,7.63-1.82,1.49-4.31,2.62-7.46,3.37v-.16ZM208.88,19.85c0-3.27.67-6.05,2.01-8.35,1.71-2.94,4.95-4.7,7.3-2.49,1.94,2.32.56,5.71-1.84,7.63-1.82,1.49-4.31,2.62-7.47,3.37v-.16Z"/>
  </g>
</svg>